SplineFontDB: 3.2
FontName: YuFanXinYu-Regular
FullName: YuFanXinYu-Regular
FamilyName: YuFanXinYu
Weight: Regular
Copyright: Copyright (c) 2022, YuFan
UComments: "2022-3-2: Created with FontForge (http://fontforge.org)"
Version: 001.000
ItalicAngle: 0
UnderlinePosition: -90
UnderlineWidth: 45
Ascent: 720
Descent: 180
InvalidEm: 0
LayerCount: 2
Layer: 0 0 "+gMxmbwAA" 1
Layer: 1 0 "+Uk1mbwAA" 0
XUID: [1021 811 374436730 30709]
StyleMap: 0x0040
FSType: 0
OS2Version: 0
OS2_WeightWidthSlopeOnly: 0
OS2_UseTypoMetrics: 1
CreationTime: 1646206483
ModificationTime: 1646403748
PfmFamily: 81
TTFWeight: 500
TTFWidth: 5
LineGap: 81
VLineGap: 0
OS2TypoAscent: 0
OS2TypoAOffset: 1
OS2TypoDescent: 0
OS2TypoDOffset: 1
OS2TypoLinegap: 81
OS2WinAscent: 0
OS2WinAOffset: 1
OS2WinDescent: 0
OS2WinDOffset: 1
HheadAscent: 0
HheadAOffset: 1
HheadDescent: 0
HheadDOffset: 1
OS2Vendor: 'PfEd'
OS2CodePages: 00040001.00000000
MarkAttachClasses: 1
DEI: 91125
LangName: 1033 "" "" "" "" "" "" "" "" "YuFan" "" "" "" "" "" "" "" "YuFanXinYu"
LangName: 2052 "" "+T1l+QWWwi+0A" "Regular" "" "+T1l+QWWwi+0A--Regular" "" "" "" "+T1l+QQAA" "" "" "" "" "" "" "" "" "Regular"
Encoding: UnicodeBmp
UnicodeInterp: none
NameList: AGL For New Fonts
DisplaySize: -48
AntiAlias: 1
FitToEm: 0
WinInfo: 22800 20 10
BeginPrivate: 0
EndPrivate
Grid
-900 1546 m 0
 1800 1546 l 1024
EndSplineSet
BeginChars: 65536 21

StartChar: uni4F59
Encoding: 20313 20313 1
Width: 720
Flags: HW
LayerCount: 2
Fore
SplineSet
672.700195312 372.700195312 m 2
 679.799804688 365.700195312 679.799804688 354.299804688 672.700195312 347.200195312 c 0
 669.200195312 343.700195312 664.599609375 341.900390625 660 341.900390625 c 0
 655.400390625 341.900390625 650.799804688 343.700195312 647.299804688 347.200195312 c 2
 389.700195312 604.799804688 l 2
 373.400390625 621.200195312 346.799804688 621.200195312 330.400390625 604.799804688 c 2
 72.7998046875 347.200195312 l 2
 65.7001953125 340.200195312 54.2998046875 340.200195312 47.2998046875 347.200195312 c 0
 40.2998046875 354.299804688 40.2998046875 365.700195312 47.2998046875 372.700195312 c 2
 304.799804688 630.299804688 l 2
 335.200195312 660.700195312 384.700195312 660.700195312 415.099609375 630.299804688 c 2
 672.700195312 372.700195312 l 2
480 222 m 2
 378 222 l 1
 378 -120 l 2
 378 -129.900390625 369.900390625 -138 360 -138 c 0
 350.099609375 -138 342 -129.900390625 342 -120 c 2
 342 222 l 1
 240 222 l 2
 197 222 162 257 162 300 c 2
 162 360 l 2
 162 369.900390625 170.099609375 378 180 378 c 0
 189.900390625 378 198 369.900390625 198 360 c 2
 198 300 l 2
 198 276.799804688 216.799804688 258 240 258 c 2
 342 258 l 1
 342 402 l 1
 240 402 l 2
 230.099609375 402 222 410.099609375 222 420 c 0
 222 429.900390625 230.099609375 438 240 438 c 2
 480 438 l 2
 489.900390625 438 498 429.900390625 498 420 c 0
 498 410.099609375 489.900390625 402 480 402 c 2
 378 402 l 1
 378 258 l 1
 480 258 l 2
 503.200195312 258 522 276.799804688 522 300 c 2
 522 360 l 2
 522 369.900390625 530.099609375 378 540 378 c 0
 549.900390625 378 558 369.900390625 558 360 c 2
 558 300 l 2
 558 257 523 222 480 222 c 2
120 138 m 0
 196.099609375 138 258 76.099609375 258 0 c 0
 258 -76.099609375 196.099609375 -138 120 -138 c 0
 110.099609375 -138 102 -129.900390625 102 -120 c 0
 102 -110.099609375 110.099609375 -102 120 -102 c 0
 176.200195312 -102 222 -56.2001953125 222 0 c 0
 222 56.2001953125 176.200195312 102 120 102 c 0
 110.099609375 102 102 110.099609375 102 120 c 0
 102 129.900390625 110.099609375 138 120 138 c 0
600 102 m 0
 543.799804688 102 498 56.2001953125 498 0 c 0
 498 -56.2001953125 543.799804688 -102 600 -102 c 0
 609.900390625 -102 618 -110.099609375 618 -120 c 0
 618 -129.900390625 609.900390625 -138 600 -138 c 0
 523.900390625 -138 462 -76.099609375 462 0 c 0
 462 76.099609375 523.900390625 138 600 138 c 0
 609.900390625 138 618 129.900390625 618 120 c 0
 618 110.099609375 609.900390625 102 600 102 c 0
EndSplineSet
EndChar

StartChar: uni65B0
Encoding: 26032 26032 2
Width: 720
Flags: HW
LayerCount: 2
Fore
SplineSet
258 480 m 2
 258 443.200195312 232.400390625 412.299804688 198 404.099609375 c 1
 198 319.599609375 l 1
 245.700195312 328.099609375 282 369.900390625 282 420 c 0
 282 429.900390625 290.099609375 438 300 438 c 0
 309.900390625 438 318 429.900390625 318 420 c 0
 318 350 265.599609375 292 198 283.200195312 c 1
 198 198 l 1
 300 198 l 2
 309.900390625 198 318 189.900390625 318 180 c 0
 318 170.099609375 309.900390625 162 300 162 c 2
 198 162 l 1
 198 76.7998046875 l 1
 265.599609375 68 318 10 318 -60 c 2
 318 -120 l 2
 318 -129.900390625 309.900390625 -138 300 -138 c 0
 290.099609375 -138 282 -129.900390625 282 -120 c 2
 282 -60 l 2
 282 -9.900390625 245.700195312 31.900390625 198 40.400390625 c 1
 198 -120 l 2
 198 -129.900390625 189.900390625 -138 180 -138 c 0
 170.099609375 -138 162 -129.900390625 162 -120 c 2
 162 40.400390625 l 1
 114.299804688 31.900390625 78 -9.900390625 78 -60 c 2
 78 -120 l 2
 78 -129.900390625 69.900390625 -138 60 -138 c 0
 50.099609375 -138 42 -129.900390625 42 -120 c 2
 42 -60 l 2
 42 10 94.400390625 68 162 76.7998046875 c 1
 162 162 l 1
 60 162 l 2
 50.099609375 162 42 170.099609375 42 180 c 0
 42 189.900390625 50.099609375 198 60 198 c 2
 162 198 l 1
 162 283.200195312 l 1
 94.400390625 292 42 350 42 420 c 0
 42 429.900390625 50.099609375 438 60 438 c 0
 69.900390625 438 78 429.900390625 78 420 c 0
 78 369.900390625 114.299804688 328.099609375 162 319.599609375 c 1
 162 404.099609375 l 1
 127.599609375 412.299804688 102 443.200195312 102 480 c 2
 102 582 l 1
 60 582 l 2
 50.099609375 582 42 590.099609375 42 600 c 0
 42 609.900390625 50.099609375 618 60 618 c 2
 162 618 l 1
 162 660 l 2
 162 669.900390625 170.099609375 678 180 678 c 0
 189.900390625 678 198 669.900390625 198 660 c 2
 198 618 l 1
 300 618 l 2
 309.900390625 618 318 609.900390625 318 600 c 0
 318 590.099609375 309.900390625 582 300 582 c 2
 258 582 l 1
 258 480 l 2
138 480 m 2
 138 456.799804688 156.799804688 438 180 438 c 0
 203.200195312 438 222 456.799804688 222 480 c 2
 222 582 l 1
 138 582 l 1
 138 480 l 2
660 438 m 2
 669.900390625 438 678 429.900390625 678 420 c 0
 678 410.099609375 669.900390625 402 660 402 c 2
 438 402 l 1
 438 -120 l 2
 438 -129.900390625 429.900390625 -138 420 -138 c 0
 410.099609375 -138 402 -129.900390625 402 -120 c 2
 402 540 l 2
 402 583 437 618 480 618 c 2
 600 618 l 2
 623.200195312 618 642 636.799804688 642 660 c 0
 642 669.900390625 650.099609375 678 660 678 c 0
 669.900390625 678 678 669.900390625 678 660 c 0
 678 617 643 582 600 582 c 2
 480 582 l 2
 456.799804688 582 438 563.200195312 438 540 c 2
 438 438 l 1
 660 438 l 2
600 318 m 0
 609.900390625 318 618 309.900390625 618 300 c 2
 618 -120 l 2
 618 -129.900390625 609.900390625 -138 600 -138 c 0
 590.099609375 -138 582 -129.900390625 582 -120 c 2
 582 300 l 2
 582 309.900390625 590.099609375 318 600 318 c 0
EndSplineSet
EndChar

StartChar: uni7E41
Encoding: 32321 32321 3
Width: 720
Flags: HW
LayerCount: 2
Fore
SplineSet
196.799804688 642 m 1
 188 574.400390625 130 522 60 522 c 0
 50.099609375 522 42 530.099609375 42 540 c 0
 42 549.900390625 50.099609375 558 60 558 c 0
 116.200195312 558 162 603.799804688 162 660 c 0
 162 669.900390625 170.099609375 678 180 678 c 2
 300 678 l 2
 309.900390625 678 318 669.900390625 318 660 c 0
 318 650.099609375 309.900390625 642 300 642 c 2
 196.799804688 642 l 1
480 -42 m 0
 523 -42 558 -77 558 -120 c 0
 558 -129.900390625 549.900390625 -138 540 -138 c 0
 530.099609375 -138 522 -129.900390625 522 -120 c 0
 522 -96.7998046875 503.200195312 -78 480 -78 c 0
 470.099609375 -78 462 -69.900390625 462 -60 c 0
 462 -50.099609375 470.099609375 -42 480 -42 c 0
240 -42 m 0
 249.900390625 -42 258 -50.099609375 258 -60 c 0
 258 -69.900390625 249.900390625 -78 240 -78 c 0
 216.799804688 -78 198 -96.7998046875 198 -120 c 0
 198 -129.900390625 189.900390625 -138 180 -138 c 0
 170.099609375 -138 162 -129.900390625 162 -120 c 0
 162 -77 197 -42 240 -42 c 0
540 78 m 2
 549.900390625 78 558 69.900390625 558 60 c 0
 558 50.099609375 549.900390625 42 540 42 c 2
 378 42 l 1
 378 -120 l 2
 378 -129.900390625 369.900390625 -138 360 -138 c 0
 350.099609375 -138 342 -129.900390625 342 -120 c 2
 342 42 l 1
 240 42 l 2
 197 42 162 77 162 120 c 0
 162 129.900390625 170.099609375 138 180 138 c 0
 189.900390625 138 198 129.900390625 198 120 c 0
 198 96.7998046875 216.799804688 78 240 78 c 2
 342 78 l 1
 342 162 l 1
 240 162 l 2
 197 162 162 197 162 240 c 0
 162 249.900390625 170.099609375 258 180 258 c 0
 189.900390625 258 198 249.900390625 198 240 c 0
 198 216.799804688 216.799804688 198 240 198 c 2
 342 198 l 1
 342 240 l 2
 342 249.900390625 350.099609375 258 360 258 c 0
 369.900390625 258 378 249.900390625 378 240 c 2
 378 198 l 1
 480 198 l 2
 489.900390625 198 498 189.900390625 498 180 c 0
 498 170.099609375 489.900390625 162 480 162 c 2
 378 162 l 1
 378 78 l 1
 540 78 l 2
282 342 m 1
 180 342 l 2
 137 342 102 377 102 420 c 0
 102 429.900390625 110.099609375 438 120 438 c 0
 129.900390625 438 138 429.900390625 138 420 c 0
 138 396.799804688 156.799804688 378 180 378 c 2
 282 378 l 1
 282 522 l 1
 240 522 l 2
 230.099609375 522 222 530.099609375 222 540 c 0
 222 549.900390625 230.099609375 558 240 558 c 2
 318 558 l 1
 318 378 l 1
 360 378 l 2
 369.900390625 378 378 369.900390625 378 360 c 0
 378 350.099609375 369.900390625 342 360 342 c 2
 318 342 l 1
 318 300 l 2
 318 290.099609375 309.900390625 282 300 282 c 0
 290.099609375 282 282 290.099609375 282 300 c 2
 282 342 l 1
167.299804688 467.299804688 m 2
 160.200195312 474.299804688 160.200195312 485.700195312 167.200195312 492.799804688 c 0
 174.299804688 499.799804688 185.700195312 499.799804688 192.700195312 492.799804688 c 2
 252.700195312 432.799804688 l 2
 259.700195312 425.700195312 259.700195312 414.299804688 252.700195312 407.299804688 c 0
 249.200195312 403.799804688 244.599609375 402 240 402 c 0
 235.400390625 402 230.799804688 403.799804688 227.299804688 407.299804688 c 2
 167.299804688 467.299804688 l 2
660 678 m 2
 669.900390625 678 678 669.900390625 678 660 c 0
 678 650.099609375 669.900390625 642 660 642 c 2
 600 642 l 2
 576.799804688 642 558 623.200195312 558 600 c 2
 558 558 l 1
 618 558 l 1
 618 480 l 2
 618 424.5 595 374.200195312 558 338.200195312 c 1
 558 300 l 2
 558 276.799804688 576.799804688 258 600 258 c 0
 609.900390625 258 618 249.900390625 618 240 c 0
 618 230.099609375 609.900390625 222 600 222 c 0
 557 222 522 257 522 300 c 2
 522 310.400390625 l 1
 492.200195312 292.400390625 457.299804688 282 420 282 c 0
 410.099609375 282 402 290.099609375 402 300 c 0
 402 309.900390625 410.099609375 318 420 318 c 0
 458.599609375 318 494.099609375 331.599609375 522 354.200195312 c 1
 522 360 l 2
 522 383.200195312 503.200195312 402 480 402 c 2
 420 402 l 2
 410.099609375 402 402 410.099609375 402 420 c 0
 402 429.900390625 410.099609375 438 420 438 c 2
 480 438 l 2
 513.299804688 438 541.799804688 417 553 387.599609375 c 1
 571.299804688 413.799804688 582 445.700195312 582 480 c 2
 582 522 l 1
 420 522 l 2
 410.099609375 522 402 530.099609375 402 540 c 0
 402 549.900390625 410.099609375 558 420 558 c 2
 522 558 l 1
 522 600 l 2
 522 643 557 678 600 678 c 2
 660 678 l 2
EndSplineSet
EndChar

StartChar: uni8BED
Encoding: 35821 35821 4
Width: 720
Flags: HW
LayerCount: 2
Fore
SplineSet
120 642 m 2
 110.099609375 642 102 650.099609375 102 660 c 0
 102 669.900390625 110.099609375 678 120 678 c 2
 240 678 l 2
 249.900390625 678 258 669.900390625 258 660 c 0
 258 650.099609375 249.900390625 642 240 642 c 2
 120 642 l 2
300 558 m 2
 309.900390625 558 318 549.900390625 318 540 c 0
 318 530.099609375 309.900390625 522 300 522 c 2
 60 522 l 2
 50.099609375 522 42 530.099609375 42 540 c 0
 42 549.900390625 50.099609375 558 60 558 c 2
 300 558 l 2
300 438 m 2
 309.900390625 438 318 429.900390625 318 420 c 0
 318 410.099609375 309.900390625 402 300 402 c 2
 60 402 l 2
 50.099609375 402 42 410.099609375 42 420 c 0
 42 429.900390625 50.099609375 438 60 438 c 2
 300 438 l 2
300 318 m 2
 309.900390625 318 318 309.900390625 318 300 c 0
 318 290.099609375 309.900390625 282 300 282 c 2
 60 282 l 2
 50.099609375 282 42 290.099609375 42 300 c 0
 42 309.900390625 50.099609375 318 60 318 c 2
 300 318 l 2
660 318 m 2
 669.900390625 318 678 309.900390625 678 300 c 0
 678 290.099609375 669.900390625 282 660 282 c 2
 420 282 l 2
 410.099609375 282 402 290.099609375 402 300 c 0
 402 309.900390625 410.099609375 318 420 318 c 2
 462 318 l 1
 462 522 l 1
 420 522 l 2
 410.099609375 522 402 530.099609375 402 540 c 0
 402 549.900390625 410.099609375 558 420 558 c 2
 462 558 l 1
 462 642 l 1
 420 642 l 2
 410.099609375 642 402 650.099609375 402 660 c 0
 402 669.900390625 410.099609375 678 420 678 c 2
 660 678 l 2
 669.900390625 678 678 669.900390625 678 660 c 0
 678 650.099609375 669.900390625 642 660 642 c 2
 498 642 l 1
 498 558 l 1
 540 558 l 2
 583 558 618 523 618 480 c 2
 618 318 l 1
 660 318 l 2
498 522 m 1
 498 318 l 1
 582 318 l 1
 582 480 l 2
 582 503.200195312 563.200195312 522 540 522 c 2
 498 522 l 1
240 198 m 0
 249.900390625 198 258 189.900390625 258 180 c 2
 258 -60 l 2
 258 -103 223 -138 180 -138 c 0
 137 -138 102 -103 102 -60 c 2
 102 180 l 2
 102 189.900390625 110.099609375 198 120 198 c 0
 129.900390625 198 138 189.900390625 138 180 c 2
 138 138 l 1
 222 138 l 1
 222 180 l 2
 222 189.900390625 230.099609375 198 240 198 c 0
180 -102 m 0
 203.200195312 -102 222 -83.2001953125 222 -60 c 2
 222 102 l 1
 138 102 l 1
 138 -60 l 2
 138 -83.2001953125 156.799804688 -102 180 -102 c 0
660 198 m 0
 669.900390625 198 678 189.900390625 678 180 c 2
 678 -60 l 2
 678 -103 643 -138 600 -138 c 2
 480 -138 l 2
 437 -138 402 -103 402 -60 c 2
 402 180 l 2
 402 189.900390625 410.099609375 198 420 198 c 0
 429.900390625 198 438 189.900390625 438 180 c 2
 438 138 l 1
 642 138 l 1
 642 180 l 2
 642 189.900390625 650.099609375 198 660 198 c 0
600 -102 m 2
 623.200195312 -102 642 -83.2001953125 642 -60 c 2
 642 102 l 1
 438 102 l 1
 438 -60 l 2
 438 -83.2001953125 456.799804688 -102 480 -102 c 2
 600 -102 l 2
EndSplineSet
EndChar

StartChar: comma
Encoding: 44 44 5
Width: 360
Flags: HW
LayerCount: 2
Fore
SplineSet
188 16.099609375 m 0
 196.900390625 11.7001953125 200.5 0.7998046875 196 -7.900390625 c 2
 136 -127.900390625 l 2
 132.900390625 -134.299804688 126.5 -137.900390625 119.900390625 -137.900390625 c 0
 117.200195312 -137.900390625 114.5 -137.299804688 111.900390625 -136 c 0
 103.099609375 -131.599609375 99.5 -120.799804688 103.900390625 -111.900390625 c 2
 163.900390625 8.099609375 l 2
 168.299804688 16.900390625 179.099609375 20.5 188 16.099609375 c 0
EndSplineSet
EndChar

StartChar: period
Encoding: 46 46 6
Width: 360
Flags: HW
LayerCount: 2
Fore
SplineSet
120 -42 m 0
 129.900390625 -42 138 -50.099609375 138 -60 c 2
 138 -120 l 2
 138 -129.900390625 129.900390625 -138 120 -138 c 0
 110.099609375 -138 102 -129.900390625 102 -120 c 2
 102 -60 l 2
 102 -50.099609375 110.099609375 -42 120 -42 c 0
EndSplineSet
EndChar

StartChar: uni3002
Encoding: 12290 12290 7
Width: 720
Flags: HW
LayerCount: 2
Fore
SplineSet
180 18 m 0
 223 18 258 -17 258 -60 c 0
 258 -103 223 -138 180 -138 c 0
 137 -138 102 -103 102 -60 c 0
 102 -17 137 18 180 18 c 0
180 -102 m 0
 203.200195312 -102 222 -83.2001953125 222 -60 c 0
 222 -36.7998046875 203.200195312 -18 180 -18 c 0
 156.799804688 -18 138 -36.7998046875 138 -60 c 0
 138 -83.2001953125 156.799804688 -102 180 -102 c 0
EndSplineSet
EndChar

StartChar: uniFF0C
Encoding: 65292 65292 8
Width: 720
Flags: HW
LayerCount: 2
Fore
SplineSet
240 18 m 0
 249.900390625 18 258 9.900390625 258 0 c 2
 258 -60 l 2
 258 -103 223 -138 180 -138 c 0
 170.099609375 -138 162 -129.900390625 162 -120 c 0
 162 -110.099609375 170.099609375 -102 180 -102 c 0
 203.200195312 -102 222 -83.2001953125 222 -60 c 2
 222 0 l 2
 222 9.900390625 230.099609375 18 240 18 c 0
EndSplineSet
EndChar

StartChar: exclam
Encoding: 33 33 9
Width: 360
Flags: HW
LayerCount: 2
Fore
SplineSet
120 -42 m 0
 129.900390625 -42 138 -50.099609375 138 -60 c 2
 138 -120 l 2
 138 -129.900390625 129.900390625 -138 120 -138 c 0
 110.099609375 -138 102 -129.900390625 102 -120 c 2
 102 -60 l 2
 102 -50.099609375 110.099609375 -42 120 -42 c 0
120 498 m 0
 129.900390625 498 138 489.900390625 138 480 c 2
 138 60 l 2
 138 50.099609375 129.900390625 42 120 42 c 0
 110.099609375 42 102 50.099609375 102 60 c 2
 102 480 l 2
 102 489.900390625 110.099609375 498 120 498 c 0
EndSplineSet
EndChar

StartChar: quotedbl
Encoding: 34 34 10
Width: 360
Flags: HW
LayerCount: 2
Fore
SplineSet
120 498 m 0
 129.900390625 498 138 489.900390625 138 480 c 2
 138 360 l 2
 138 350.099609375 129.900390625 342 120 342 c 0
 110.099609375 342 102 350.099609375 102 360 c 2
 102 480 l 2
 102 489.900390625 110.099609375 498 120 498 c 0
240 498 m 0
 249.900390625 498 258 489.900390625 258 480 c 2
 258 360 l 2
 258 350.099609375 249.900390625 342 240 342 c 0
 230.099609375 342 222 350.099609375 222 360 c 2
 222 480 l 2
 222 489.900390625 230.099609375 498 240 498 c 0
EndSplineSet
EndChar

StartChar: uniFF01
Encoding: 65281 65281 11
Width: 720
Flags: HW
LayerCount: 2
Fore
SplineSet
180 -42 m 0
 189.900390625 -42 198 -50.099609375 198 -60 c 2
 198 -120 l 2
 198 -129.900390625 189.900390625 -138 180 -138 c 0
 170.099609375 -138 162 -129.900390625 162 -120 c 2
 162 -60 l 2
 162 -50.099609375 170.099609375 -42 180 -42 c 0
180 498 m 0
 189.900390625 498 198 489.900390625 198 480 c 2
 198 60 l 2
 198 50.099609375 189.900390625 42 180 42 c 0
 170.099609375 42 162 50.099609375 162 60 c 2
 162 480 l 2
 162 489.900390625 170.099609375 498 180 498 c 0
EndSplineSet
EndChar

StartChar: numbersign
Encoding: 35 35 12
Width: 360
Flags: HW
LayerCount: 2
Fore
SplineSet
300 138 m 2
 309.900390625 138 318 129.900390625 318 120 c 0
 318 110.099609375 309.900390625 102 300 102 c 2
 258 102 l 1
 258 0 l 2
 258 -9.900390625 249.900390625 -18 240 -18 c 0
 230.099609375 -18 222 -9.900390625 222 0 c 2
 222 102 l 1
 138 102 l 1
 138 0 l 2
 138 -9.900390625 129.900390625 -18 120 -18 c 0
 110.099609375 -18 102 -9.900390625 102 0 c 2
 102 102 l 1
 60 102 l 2
 50.099609375 102 42 110.099609375 42 120 c 0
 42 129.900390625 50.099609375 138 60 138 c 2
 102 138 l 1
 102 282 l 1
 60 282 l 2
 50.099609375 282 42 290.099609375 42 300 c 0
 42 309.900390625 50.099609375 318 60 318 c 2
 102 318 l 1
 102 420 l 2
 102 429.900390625 110.099609375 438 120 438 c 0
 129.900390625 438 138 429.900390625 138 420 c 2
 138 318 l 1
 222 318 l 1
 222 420 l 2
 222 429.900390625 230.099609375 438 240 438 c 0
 249.900390625 438 258 429.900390625 258 420 c 2
 258 318 l 1
 300 318 l 2
 309.900390625 318 318 309.900390625 318 300 c 0
 318 290.099609375 309.900390625 282 300 282 c 2
 258 282 l 1
 258 138 l 1
 300 138 l 2
138 138 m 1
 222 138 l 1
 222 282 l 1
 138 282 l 1
 138 138 l 1
EndSplineSet
EndChar

StartChar: dollar
Encoding: 36 36 13
Width: 360
Flags: HW
LayerCount: 2
Fore
SplineSet
198 196.799804688 m 1
 265.599609375 188 318 130 318 60 c 0
 318 -10 265.599609375 -68 198 -76.7998046875 c 1
 198 -120 l 2
 198 -129.900390625 189.900390625 -138 180 -138 c 0
 170.099609375 -138 162 -129.900390625 162 -120 c 2
 162 -76.7998046875 l 1
 94.400390625 -68 42 -10 42 60 c 0
 42 69.900390625 50.099609375 78 60 78 c 0
 69.900390625 78 78 69.900390625 78 60 c 0
 78 9.900390625 114.299804688 -31.900390625 162 -40.400390625 c 1
 162 163.200195312 l 1
 94.400390625 172 42 230 42 300 c 0
 42 370 94.400390625 428 162 436.799804688 c 1
 162 480 l 2
 162 489.900390625 170.099609375 498 180 498 c 0
 189.900390625 498 198 489.900390625 198 480 c 2
 198 436.799804688 l 1
 265.599609375 428 318 370 318 300 c 0
 318 290.099609375 309.900390625 282 300 282 c 0
 290.099609375 282 282 290.099609375 282 300 c 0
 282 350.099609375 245.700195312 391.900390625 198 400.400390625 c 1
 198 196.799804688 l 1
78 300 m 0
 78 249.900390625 114.299804688 208.099609375 162 199.599609375 c 1
 162 400.400390625 l 1
 114.299804688 391.900390625 78 350.099609375 78 300 c 0
198 -40.400390625 m 1
 245.700195312 -31.900390625 282 9.900390625 282 60 c 0
 282 110.099609375 245.700195312 151.900390625 198 160.400390625 c 1
 198 -40.400390625 l 1
EndSplineSet
EndChar

StartChar: percent
Encoding: 37 37 14
Width: 360
Flags: HW
LayerCount: 2
Fore
SplineSet
120 222 m 0
 77 222 42 257 42 300 c 0
 42 343 77 378 120 378 c 0
 163 378 198 343 198 300 c 0
 198 257 163 222 120 222 c 0
120 342 m 0
 96.7998046875 342 78 323.200195312 78 300 c 0
 78 276.799804688 96.7998046875 258 120 258 c 0
 143.200195312 258 162 276.799804688 162 300 c 0
 162 323.200195312 143.200195312 342 120 342 c 0
240 18 m 0
 283 18 318 -17 318 -60 c 0
 318 -103 283 -138 240 -138 c 0
 197 -138 162 -103 162 -60 c 0
 162 -17 197 18 240 18 c 0
240 -102 m 0
 263.200195312 -102 282 -83.2001953125 282 -60 c 0
 282 -36.7998046875 263.200195312 -18 240 -18 c 0
 216.799804688 -18 198 -36.7998046875 198 -60 c 0
 198 -83.2001953125 216.799804688 -102 240 -102 c 0
310 315 m 0
 318.299804688 309.5 320.5 298.299804688 315 290 c 2
 75 -70 l 2
 71.5 -75.2001953125 65.7998046875 -78 60 -78 c 0
 56.5 -78 53.099609375 -77 50 -75 c 0
 41.7001953125 -69.400390625 39.5 -58.2998046875 45 -50 c 2
 285 310 l 2
 290.599609375 318.299804688 301.700195312 320.5 310 315 c 0
EndSplineSet
EndChar

StartChar: ampersand
Encoding: 38 38 15
Width: 360
Flags: HW
LayerCount: 2
Fore
SplineSet
316.5 -112.900390625 m 2
 320.5 -122 316.200195312 -132.599609375 307.099609375 -136.5 c 0
 304.799804688 -137.5 302.400390625 -138 300 -138 c 0
 293 -138 286.299804688 -133.900390625 283.400390625 -127.099609375 c 2
 253.299804688 -56.7998046875 l 1
 232.099609375 -70.2001953125 206.900390625 -78 180 -78 c 0
 103.900390625 -78 42 -16.099609375 42 60 c 0
 42 124.299804688 86.2998046875 178.5 146 193.799804688 c 1
 103.5 293 l 2
 99.599609375 302.099609375 103.900390625 312.700195312 113 316.599609375 c 0
 122.099609375 320.5 132.700195312 316.200195312 136.599609375 307.099609375 c 2
 183.299804688 198.099609375 l 1
 238 199.799804688 282 244.900390625 282 300 c 0
 282 356.200195312 236.200195312 402 180 402 c 2
 120 402 l 2
 110.099609375 402 102 410.099609375 102 420 c 0
 102 429.900390625 110.099609375 438 120 438 c 2
 180 438 l 2
 256.099609375 438 318 376.099609375 318 300 c 0
 318 230.099609375 265.700195312 172.099609375 198.200195312 163.200195312 c 1
 265.900390625 5.099609375 l 1
 276 21 281.900390625 39.7998046875 281.900390625 60 c 2
 281.900390625 120 l 2
 281.900390625 129.900390625 290 138 299.900390625 138 c 0
 309.799804688 138 317.900390625 129.900390625 317.900390625 120 c 2
 317.900390625 60 l 2
 317.900390625 24.2998046875 304.400390625 -8.2001953125 282.099609375 -32.7001953125 c 1
 316.5 -112.900390625 l 2
180 -42 m 0
 201.900390625 -42 222.299804688 -35 239 -23.2001953125 c 1
 160.400390625 160.099609375 l 1
 113.5 150.900390625 78 109.5 78 60 c 0
 78 3.7998046875 123.799804688 -42 180 -42 c 0
EndSplineSet
EndChar

StartChar: quotesingle
Encoding: 39 39 16
Width: 360
Flags: HW
LayerCount: 2
Fore
SplineSet
180 498 m 0
 189.900390625 498 198 489.900390625 198 480 c 2
 198 360 l 2
 198 350.099609375 189.900390625 342 180 342 c 0
 170.099609375 342 162 350.099609375 162 360 c 2
 162 480 l 2
 162 489.900390625 170.099609375 498 180 498 c 0
EndSplineSet
EndChar

StartChar: parenleft
Encoding: 40 40 17
Width: 360
Flags: HW
LayerCount: 2
Fore
SplineSet
300 -102 m 0
 309.900390625 -102 318 -110.099609375 318 -120 c 0
 318 -129.900390625 309.900390625 -138 300 -138 c 0
 190.799804688 -138 102 -49.2001953125 102 60 c 2
 102 300 l 2
 102 409.200195312 190.799804688 498 300 498 c 0
 309.900390625 498 318 489.900390625 318 480 c 0
 318 470.099609375 309.900390625 462 300 462 c 0
 210.700195312 462 138 389.299804688 138 300 c 2
 138 60 l 2
 138 -29.2998046875 210.700195312 -102 300 -102 c 0
EndSplineSet
EndChar

StartChar: parenright
Encoding: 41 41 18
Width: 360
Flags: HW
LayerCount: 2
Fore
SplineSet
60 498 m 0
 169.200195312 498 258 409.200195312 258 300 c 2
 258 60 l 2
 258 -49.2001953125 169.200195312 -138 60 -138 c 0
 50.099609375 -138 42 -129.900390625 42 -120 c 0
 42 -110.099609375 50.099609375 -102 60 -102 c 0
 149.299804688 -102 222 -29.2998046875 222 60 c 2
 222 300 l 2
 222 389.299804688 149.299804688 462 60 462 c 0
 50.099609375 462 42 470.099609375 42 480 c 0
 42 489.900390625 50.099609375 498 60 498 c 0
EndSplineSet
EndChar

StartChar: asterisk
Encoding: 42 42 19
Width: 360
Flags: HW
LayerCount: 2
Fore
SplineSet
205.5 240 m 1
 312.700195312 132.700195312 l 2
 319.700195312 125.599609375 319.700195312 114.200195312 312.700195312 107.200195312 c 0
 309.200195312 103.700195312 304.599609375 101.900390625 300 101.900390625 c 0
 295.400390625 101.900390625 290.799804688 103.700195312 287.299804688 107.200195312 c 2
 198 196.5 l 1
 198 60 l 2
 198 50.099609375 189.900390625 42 180 42 c 0
 170.099609375 42 162 50.099609375 162 60 c 2
 162 196.5 l 1
 72.7001953125 107.200195312 l 2
 69.2001953125 103.700195312 64.599609375 101.900390625 60 101.900390625 c 0
 55.400390625 101.900390625 50.7998046875 103.700195312 47.2998046875 107.200195312 c 0
 40.2998046875 114.299804688 40.2998046875 125.700195312 47.2998046875 132.700195312 c 2
 154.5 240 l 1
 47.2001953125 347.299804688 l 2
 40.2001953125 354.400390625 40.2001953125 365.799804688 47.2001953125 372.799804688 c 0
 54.2998046875 379.799804688 65.7001953125 379.799804688 72.7001953125 372.799804688 c 2
 162 283.5 l 1
 162 420 l 2
 162 429.900390625 170.099609375 438 180 438 c 0
 189.900390625 438 198 429.900390625 198 420 c 2
 198 283.5 l 1
 287.299804688 372.799804688 l 2
 294.400390625 379.799804688 305.799804688 379.799804688 312.799804688 372.799804688 c 0
 319.799804688 365.700195312 319.799804688 354.299804688 312.799804688 347.299804688 c 2
 205.5 240 l 1
EndSplineSet
EndChar

StartChar: plus
Encoding: 43 43 20
Width: 360
Flags: HW
LayerCount: 2
Fore
SplineSet
300 198 m 2
 309.900390625 198 318 189.900390625 318 180 c 0
 318 170.099609375 309.900390625 162 300 162 c 2
 198 162 l 1
 198 60 l 2
 198 50.099609375 189.900390625 42 180 42 c 0
 170.099609375 42 162 50.099609375 162 60 c 2
 162 162 l 1
 60 162 l 2
 50.099609375 162 42 170.099609375 42 180 c 0
 42 189.900390625 50.099609375 198 60 198 c 2
 162 198 l 1
 162 300 l 2
 162 309.900390625 170.099609375 318 180 318 c 0
 189.900390625 318 198 309.900390625 198 300 c 2
 198 198 l 1
 300 198 l 2
EndSplineSet
EndChar
